<svg width="988" height="421" viewBox="0 0 988 421" fill="none" xmlns="http://www.w3.org/2000/svg">
<path d="M179.643 227.702C174.197 229.516 168.4 230.498 162.382 230.498H143.336V310.496H236.231L179.643 227.702Z" fill="#E8B232"/>
<path d="M179.643 227.702C188.481 224.764 196.391 219.637 202.787 212.921C213.124 202.068 219.52 187.069 219.52 170.505C219.52 137.368 193.935 110.504 162.382 110.504H143.336V230.498H162.382C168.4 230.498 174.197 229.516 179.643 227.702Z" fill="#EEC553"/>
<path d="M143.336 70.509H105.245V350.499H143.336V70.509Z" fill="#FCDD6D"/>
<path d="M105.245 110.504H67.1531V310.496H105.245V110.504Z" fill="#FEE992"/>
<path d="M327.377 207.479C325.35 189.071 319.839 178.682 307.81 175.137C319.953 172.896 326.135 164.276 326.135 153.415C326.135 140.193 317.369 132.046 297.466 132.046H270.597V210.432H281.612V180.091H291.734C307.81 180.091 313.885 190.96 315.906 207.952C315.906 208.311 316.02 210.08 316.02 210.432H327.713C327.599 209.84 327.377 207.952 327.377 207.479ZM295.896 170.415H281.612V141.962H297.352C309.723 141.962 314.785 145.98 314.785 154.48C314.785 162.155 309.945 170.415 295.896 170.415Z" fill="#EAB12D"/>
<path d="M557.341 132.046V210.432H568.363V132.046H557.341Z" fill="#EAB12D"/>
<path d="M643.083 132.046H630.155L601.936 210.432H613.401L621.496 186.26H650.843L658.602 210.432H670.41L643.083 132.046ZM624.872 177.52L636.337 144.796L647.473 177.52H624.872Z" fill="#EAB12D"/>
<path d="M674.864 132.046V210.432H685.886V132.046H674.864Z" fill="#EAB12D"/>
<path d="M730.067 154.712L716.689 196.738L702.526 154.712H691.169L711.742 210.432H721.865L741.539 154.712H730.067Z" fill="#EAB12D"/>
<path d="M820.542 154.127C810.648 154.127 806.486 158.729 805.03 165.22V154.712H794.122V210.432H805.03V181.868C805.03 170.415 807.614 165.46 817.173 165.46H822.12V154.127H820.542Z" fill="#EAB12D"/>
<path d="M480.451 154.712V185.675C480.451 188.943 480.03 191.792 479.18 194.213C478.338 196.634 476.982 198.5 475.125 199.819C473.262 201.131 471.249 201.813 468.208 201.813C465.167 201.813 463.34 201.153 461.448 199.872C459.549 198.59 458.15 196.738 457.236 194.317C456.322 191.904 455.865 189.018 455.865 185.675V154.712H444.972V186.312C444.972 194.857 446.949 201.206 450.911 205.366C454.866 209.533 460.598 211.617 468.108 211.617C475.618 211.617 481.279 209.571 485.305 205.478C489.331 201.386 491.344 195 491.344 186.312V154.712H480.451Z" fill="#EAB12D"/>
<path d="M372.144 159.157C368.339 155.409 363.042 153.535 356.253 153.535C350.228 153.535 345.231 155.117 341.248 158.272C337.257 161.435 334.794 165.835 333.852 171.479H345.716C346.245 168.998 347.415 166.899 349.25 165.565C351.077 164.231 353.376 163.564 356.153 163.564C359.458 163.564 362.042 164.546 363.898 166.495C365.762 168.451 366.704 171.382 366.704 174.919V177.52H352.448C346.245 177.52 341.447 178.989 338.057 181.935C334.659 184.881 332.967 189.018 332.967 194.347C332.967 199.677 334.63 203.709 337.935 206.872C341.24 210.035 345.552 211.617 350.863 211.617C354.411 211.617 357.567 210.747 360.343 209.008C361.728 208.139 363.028 207.067 364.163 205.815C365.29 204.571 366.261 203.147 366.968 201.595V210.433H377.854V175.099C377.854 168.219 375.956 162.912 372.144 159.157ZM366.704 187.841C366.704 190.442 366.097 192.998 364.919 195.075C363.734 197.151 362.142 198.792 360.136 199.999C358.13 201.206 355.853 201.813 353.319 201.813C350.485 201.813 348.229 201.116 346.544 199.722C344.86 198.327 344.017 196.424 344.017 194.003C344.017 191.582 344.817 189.588 346.38 188.261C347.944 186.927 350.199 186.26 353.155 186.26H366.704V187.841Z" fill="#EAB12D"/>
<path d="M780.873 159.157C777.068 155.409 771.764 153.535 764.982 153.535C758.957 153.535 753.953 155.117 749.97 158.272C745.986 161.435 743.523 165.835 742.574 171.479H754.438C754.974 168.998 756.144 166.899 757.972 165.565C759.799 164.231 762.105 163.564 764.882 163.564C768.187 163.564 770.764 164.546 772.627 166.495C774.484 168.451 775.426 171.382 775.426 174.919V177.52H761.17C754.974 177.52 750.177 178.989 746.779 181.935C743.388 184.881 741.689 189.018 741.689 194.347C741.689 199.677 743.359 203.709 746.664 206.872C749.97 210.035 754.281 211.617 759.592 211.617C763.133 211.617 766.288 210.747 769.065 209.008C770.45 208.139 771.757 207.067 772.892 205.815C774.02 204.571 774.983 203.147 775.69 201.595V210.433H786.584V175.099C786.584 168.226 784.678 162.912 780.873 159.157ZM775.426 187.841C775.426 190.442 774.826 192.998 773.641 195.075C772.463 197.151 770.864 198.792 768.858 199.999C766.852 201.206 764.582 201.813 762.041 201.813C759.207 201.813 756.951 201.116 755.266 199.722C753.589 198.327 752.746 196.424 752.746 194.003C752.746 191.582 753.539 189.588 755.102 188.261C756.666 186.927 758.929 186.26 761.877 186.26H775.426V187.841Z" fill="#EAB12D"/>
<path d="M426.54 154.712V163.212C422.835 157.425 416.76 153.535 409.343 153.535C395.63 153.535 385.393 164.868 385.393 182.805V183.052C385.5 200.876 395.737 211.617 409.229 211.617C416.653 211.617 422.835 207.952 426.54 202.053V231.914H437.433V154.712H426.54ZM427.104 182.805C427.104 193.905 421.257 201.813 412.041 201.813C402.825 201.813 396.857 195.202 396.857 183.284V182.46C396.857 170.295 402.932 163.564 412.041 163.564C421.15 163.564 427.104 170.775 427.104 181.86V182.805Z" fill="#EAB12D"/>
<path d="M549.803 184.596C549.781 179.522 549.36 175.557 548.346 172.214C545.405 160.768 536.603 153.535 524.446 153.535C508.313 153.535 498.883 165.738 498.883 181.92C498.883 199.639 508.413 211.617 524.66 211.617C538.588 211.617 547.154 203.724 549.146 193.905H538.916C537.867 199.189 532.185 201.813 525.374 201.813C518.186 201.813 509.684 197.743 508.934 186.26H549.803V184.596ZM508.955 177.52C509.998 168.016 518.293 163.564 525.524 163.564C532.756 163.564 539.337 167.911 540.165 177.52H508.955Z" fill="#EAB12D"/>
<path d="M875.381 184.596C875.352 179.522 874.931 175.557 873.918 172.214C870.976 160.768 862.175 153.535 850.017 153.535C833.884 153.535 824.454 165.738 824.454 181.92C824.454 199.639 833.984 211.617 850.239 211.617C864.166 211.617 872.733 203.724 874.717 193.905H864.495C863.445 199.189 857.763 201.813 850.953 201.813C843.757 201.813 835.262 197.743 834.512 186.26H875.381V184.596ZM834.534 177.52C835.576 168.016 843.871 163.564 851.103 163.564C858.334 163.564 864.909 167.911 865.744 177.52H834.534Z" fill="#EAB12D"/>
<path d="M918.206 186.005C916.599 183.876 914.429 182.265 911.717 181.163C909.004 180.061 905.934 179.147 902.515 178.42C900.123 177.828 898.11 177.183 896.461 176.493C894.805 175.796 893.563 174.934 892.728 173.908C891.893 172.873 891.471 171.704 891.471 170.385C891.471 168.331 892.214 166.682 893.692 165.438C895.184 164.186 897.311 163.564 900.095 163.564C902.879 163.564 905.099 164.239 906.777 165.603C908.454 166.952 910.189 168.976 910.446 171.472H919.855C919.262 166.12 916.778 160.866 913.48 157.927C910.189 154.997 905.827 153.535 900.402 153.535C896.654 153.535 893.413 154.24 890.658 155.671C887.916 157.103 885.803 159.082 884.311 161.615C882.834 164.149 882.091 166.989 882.091 170.145C882.091 172.783 882.569 175.002 883.54 176.793C884.511 178.592 885.818 180.084 887.467 181.253C889.108 182.422 890.986 183.397 893.092 184.161C895.183 184.933 897.368 185.54 899.631 185.975C902.015 186.5 904.064 187.062 905.784 187.684C907.49 188.306 908.783 189.153 909.653 190.218C910.524 191.282 910.96 191.941 910.96 193.995C910.96 195.389 910.639 196.694 909.996 197.9C909.347 199.115 908.333 200.066 906.941 200.763C905.556 201.461 903.8 201.805 901.658 201.805C899.395 201.805 897.454 201.363 895.805 200.494C894.148 199.609 892.863 198.432 891.921 196.971C891.307 196.019 890.829 194.985 890.486 193.905H880.257C880.721 197.286 881.777 200.246 883.44 202.817C885.254 205.598 887.702 207.757 890.815 209.301C893.906 210.845 897.525 211.617 901.658 211.617C905.791 211.617 909.004 210.875 911.888 209.413C914.758 207.944 916.985 205.89 918.57 203.252C920.147 200.614 920.911 197.57 920.847 194.115C920.847 190.165 919.826 188.134 918.206 186.005Z" fill="#EAB12D"/>
<path d="M270.597 243.667H294.625V248.299H275.644V260.434H294.618V265.066H275.644V287.935H270.597V243.667Z" fill="black"/>
<path d="M304.298 243.667H299.323V248.299H304.298V243.667Z" fill="black"/>
<path d="M304.298 253.231H299.323V287.942H304.298V253.231Z" fill="black"/>
<path d="M308.988 253.231H313.821V261.394C315.57 255.66 319.282 252.497 324.957 252.497C332.032 252.497 336.443 257.421 336.443 266.251V287.942H331.539V266.543C331.539 260.292 328.669 257.054 323.837 257.054C317.183 257.054 313.893 262.713 313.893 272.936V287.935H308.988V253.231Z" fill="black"/>
<path d="M363.734 255.944C361.493 253.643 358.388 252.572 354.419 252.572C350.921 252.572 347.979 253.456 345.588 255.367C343.197 257.279 341.762 259.835 341.283 263.035H346.359C346.766 261.146 347.651 259.617 349.007 258.59C350.371 257.571 352.113 257.054 354.247 257.054C356.824 257.054 358.816 257.833 360.237 259.37C361.65 260.921 362.357 263.192 362.357 266.048V267.9H352.156C348.472 267.9 345.638 268.814 343.632 270.628C341.626 272.442 340.627 274.968 340.627 278.213C340.627 281.264 341.619 283.925 343.653 285.851C345.695 287.785 348.336 288.752 351.57 288.752C353.926 288.752 356.06 288.115 357.974 286.84C359.887 285.566 361.514 283.677 362.357 281.511V287.942H367.104V265.643C367.104 261.476 365.976 258.238 363.734 255.944ZM362.357 273.753C362.357 275.68 361.928 277.636 361.065 279.195C360.194 280.762 359.03 281.998 357.56 282.905C356.089 283.812 354.433 284.262 352.598 284.262C350.35 284.262 348.565 283.715 347.244 282.613C345.924 281.511 345.26 280.035 345.26 278.183C345.26 276.332 345.874 274.675 347.109 273.641C348.336 272.592 350.15 272.074 352.541 272.074H362.357V273.753Z" fill="black"/>
<path d="M461.491 255.944C459.249 253.643 456.137 252.572 452.168 252.572C448.677 252.572 445.736 253.456 443.344 255.367C440.953 257.279 439.518 259.835 439.04 263.035H444.115C444.522 261.146 445.4 259.617 446.764 258.59C448.12 257.571 449.869 257.054 452.003 257.054C454.573 257.054 456.572 257.833 457.986 259.37C459.399 260.921 460.113 263.192 460.113 266.048V267.9H449.905C446.228 267.9 443.387 268.814 441.381 270.628C439.375 272.442 438.376 274.968 438.376 278.213C438.376 281.264 439.368 283.925 441.41 285.851C443.451 287.785 446.085 288.752 449.326 288.752C451.675 288.752 453.809 288.115 455.723 286.84C457.636 285.566 459.263 283.677 460.113 281.511V287.942H464.853V265.643C464.853 261.476 463.732 258.238 461.491 255.944ZM460.113 273.753C460.113 275.68 459.677 277.636 458.814 279.195C457.95 280.762 456.779 281.998 455.309 282.905C453.838 283.812 452.189 284.262 450.347 284.262C448.106 284.262 446.321 283.715 445 282.613C443.673 281.511 443.009 280.035 443.009 278.183C443.009 276.332 443.63 274.675 444.858 273.641C446.093 272.592 447.906 272.074 450.29 272.074H460.113V273.753Z" fill="black"/>
<path d="M371.794 253.231H376.627V261.394C378.376 255.66 382.088 252.497 387.763 252.497C394.837 252.497 399.249 257.421 399.249 266.251V287.942H394.345V266.543C394.345 260.292 391.475 257.054 386.642 257.054C379.989 257.054 376.698 262.713 376.698 272.936V287.935H371.794V253.231Z" fill="black"/>
<path d="M434.193 278.273H429.01C427.382 281.953 424.348 284.254 419.466 284.254C412.534 284.254 408.401 278.738 408.401 270.725V270.425C408.401 262.263 412.67 256.896 419.601 256.896C424.348 256.896 427.375 259.257 428.953 263.028H434.114C432.108 256.814 427.197 252.564 419.673 252.564C410.007 252.564 403.425 259.917 403.425 270.583C403.425 279.847 408.401 286.683 416.096 288.227C419.808 290.213 421.557 292.274 421.557 294.845C421.557 296.974 420.158 298.151 418.059 298.151C416.375 298.151 415.182 297.716 414.626 297.491L414.561 301.239C415.539 301.681 417.01 302.116 418.83 302.116C423.178 302.116 425.762 299.47 425.762 295.797C425.762 293.144 424.505 290.648 421.207 288.519C427.803 287.972 432.129 284.172 434.185 278.266L434.193 278.273Z" fill="black"/>
<path d="M492.679 272.464C491.566 271.123 490.131 270.118 488.375 269.451C486.611 268.792 484.684 268.252 482.6 267.84C480.858 267.48 479.387 267.03 478.195 266.505C476.996 265.981 476.096 265.351 475.49 264.624C474.876 263.897 474.576 263.028 474.576 262.023C474.576 260.427 475.14 259.4 476.296 258.455C477.446 257.518 479.109 257.054 481.286 257.054C483.463 257.054 485.269 257.601 486.576 258.703C487.875 259.797 488.625 261.169 488.803 263.043H493.372C493.022 259.662 491.78 256.971 489.653 255.21C487.525 253.456 484.784 252.572 481.429 252.572C479.08 252.572 477.039 252.991 475.29 253.838C473.548 254.685 472.213 255.855 471.278 257.331C470.35 258.815 469.879 260.539 469.879 262.503C469.879 264.009 470.193 265.321 470.828 266.438C471.456 267.562 472.306 268.484 473.369 269.211C474.433 269.938 475.632 270.53 476.96 270.995C478.288 271.452 479.687 271.82 481.165 272.089C482.949 272.449 484.47 272.839 485.733 273.251C486.99 273.664 487.961 274.293 488.632 275.133C489.303 275.98 489.581 276.924 489.581 278.431C489.581 279.525 489.374 280.747 488.832 281.639C488.289 282.531 487.418 283.003 486.354 283.505C485.291 284.007 483.935 284.254 482.278 284.254C480.494 284.254 478.952 283.94 477.645 283.303C476.339 282.658 475.304 281.796 474.54 280.702C474.019 279.945 473.619 279.135 473.355 278.273H468.522C468.851 280.237 469.536 281.953 470.564 283.422C471.756 285.131 473.348 286.451 475.325 287.358C477.303 288.272 479.601 288.729 482.207 288.729C484.813 288.729 486.89 288.279 488.696 287.388C490.502 286.503 491.901 285.251 492.901 283.655C493.907 282.058 494.378 280.229 494.335 278.176C494.335 275.71 493.779 273.806 492.672 272.457L492.679 272.464Z" fill="black"/>
</svg>
